# xmcd
#
# Track frame offsets: 
#        150
#        12309
#        24611
#        36591
#        48806
#        61201
#        73047
#        85355
#        96787
#        109692
#        121738
#        133961
#        146207
#        159075
#        170307
#        180928
#        193421
#        205172
#        217904
#        230433
#        244187
#        258158
#        267758
#        280393
#        293818
#        305330
#        316921
#        331493
#
# Disc length: 4594 seconds
#
# Revision: 2
# Processed by: cddbd v1.5.2PL0 Copyright (c) Steve Scherf et al.
# Submitted via: ExactAudioCopy v1.3
#
DISCID=9611f01c
DTITLE=Lightnin' Hopkins - Texas Thunderbolt
DYEAR=2007
DGENRE=Blues
TTITLE0=Shotgun Blues
TTITLE1=Rollin' And Rollin'
TTITLE2=Tell It Like It Is
TTITLE3=Miss Loretta
TTITLE4=Ida Mae
TTITLE5=What Can It Be?
TTITLE6=Lonesome Home
TTITLE7=Appetite Blues
TTITLE8=Ain't It A Shame
TTITLE9=Tim Moore's Farm
TTITLE10=You Don't Know
TTITLE11=Somebody's Got To Go
TTITLE12=Baby Please Don't Go
TTITLE13=Mad With You
TTITLE14=Unsuccessful Blues
TTITLE15=Rollin' Woman Blues
TTITLE16='T' Model Blues
TTITLE17=Lightnin's Boogie
TTITLE18=Zologo
TTITLE19=Automobile Blues
TTITLE20=Untrue Blues
TTITLE21=Henny Penny Blues
TTITLE22=Jackstropper Blues
TTITLE23=Grievance Blues
TTITLE24=Grosebeck Blues
TTITLE25=Racetrack Blues
TTITLE26=Bluebird Blues
TTITLE27=Goin' Back And Talk To Mama
EXTD=upc =805520-015905\nrecorded in Houston, TX, USA in 1948-1950
EXTT0=
EXTT1=
EXTT2=
EXTT3=
EXTT4=
EXTT5=
EXTT6=
EXTT7=
EXTT8=
EXTT9=
EXTT10=
EXTT11=
EXTT12=
EXTT13=
EXTT14=
EXTT15=
EXTT16=
EXTT17=
EXTT18=
EXTT19=
EXTT20=
EXTT21=
EXTT22=
EXTT23=
EXTT24=
EXTT25=
EXTT26=
EXTT27=
PLAYORDER=
